# xmcd
#
# Track frame offsets: 
#        150
#        23192
#        43776
#        65268
#        86534
#        107636
#        129485
#        150712
#        172248
#        194487
#
# Disc length: 2801 seconds
#
# Revision: 2
# Processed by: cddbd v1.5.2PL0 Copyright (c) Steve Scherf et al.
# Submitted via: ExactAudioCopy v0.99pb3
#
DISCID=850aef0a
DTITLE=Armik - Piano Nights
DYEAR=2004
DGENRE=New Age
TTITLE0=Piano Nights
TTITLE1=Red Roses
TTITLE2=Caliente
TTITLE3=Afternoon In Venice
TTITLE4=Flames Of Passion
TTITLE5=Fairytale Moon
TTITLE6=Thinking Of You
TTITLE7=Rossa Nova
TTITLE8=Rainy Sundays
TTITLE9=Dreams
EXTD=
EXTT0=
EXTT1=
EXTT2=
EXTT3=
EXTT4=
EXTT5=
EXTT6=
EXTT7=
EXTT8=
EXTT9=
PLAYORDER=
